<?xml version="1.0" standalone="no"?>
<svg xmlns="http://www.w3.org/2000/svg" xmlns:xlink="http://www.w3.org/1999/xlink" width="1087pt" height="425pt" viewBox="0.00 0.00 1086.84 425.00">
<g id="graph0" class="graph" transform="translate(64.22586059570301,371.6015625) scale(1.0000000000000002)" data-name="G">

<polygon fill="white" stroke="none" points="-4,4 -4,-421 1082.84,-421 1082.84,4 -4,4" style=""/>
<!-- the -->
<g id="node1" class="node" pointer-events="visible" data-name="the">

<polygon fill="lightblue" stroke="black" points="58.63,-226.6 0.12,-226.6 0.12,-185.4 58.63,-185.4 58.63,-226.6" style=""/>
<text text-anchor="middle" x="29.38" y="-210.2" font-family="SimHei" font-size="14.00" style="">the</text>
<text text-anchor="middle" x="29.38" y="-193.4" font-family="SimHei" font-size="14.00" style="">(freq:6)</text>
</g>
<!-- scientist -->
<g id="node2" class="node" pointer-events="visible" data-name="scientist">

<polygon fill="lightblue" stroke="black" points="161.58,-391.6 99.81,-391.6 99.81,-350.4 161.58,-350.4 161.58,-391.6" style=""/>
<text text-anchor="middle" x="130.69" y="-375.2" font-family="SimHei" font-size="14.00" style="">scientist</text>
<text text-anchor="middle" x="130.69" y="-358.4" font-family="SimHei" font-size="14.00" style="">(freq:2)</text>
</g>
<!-- the&#45;&gt;scientist -->
<g id="edge2" class="edge" data-name="the-&gt;scientist">

<path fill="none" stroke="gray" d="M33.6,-226.89C38.71,-254.36 50.89,-302.99 76.75,-336 80.57,-340.88 85.27,-345.3 90.28,-349.24" style=""/>
<polygon fill="gray" stroke="gray" points="88.08,-351.97 98.26,-354.91 92.13,-346.26 88.08,-351.97" style=""/>
<text text-anchor="middle" x="79.25" y="-344" font-family="Times,serif" font-size="10.00" style="">2</text>
</g>
<!-- data -->
<g id="node5" class="node" pointer-events="visible" data-name="data">

<polygon fill="lightblue" stroke="black" points="478.65,-124.6 420.14,-124.6 420.14,-83.4 478.65,-83.4 478.65,-124.6" style=""/>
<text text-anchor="middle" x="449.4" y="-108.2" font-family="SimHei" font-size="14.00" style="">data</text>
<text text-anchor="middle" x="449.4" y="-91.4" font-family="SimHei" font-size="14.00" style="">(freq:2)</text>
</g>
<!-- the&#45;&gt;data -->
<g id="edge1" class="edge" data-name="the-&gt;data">

<path fill="none" stroke="gray" d="M33.39,-185.08C40.95,-141.71 64.96,-46 129.69,-46 129.69,-46 129.69,-46 347.15,-46 373.61,-46 399.43,-61.1 418.37,-75.89" style=""/>
<polygon fill="gray" stroke="gray" points="415.97,-78.45 425.92,-82.1 420.42,-73.04 415.97,-78.45" style=""/>
<text text-anchor="middle" x="237.46" y="-49" font-family="Times,serif" font-size="10.00" style="">1</text>
</g>
<!-- report -->
<g id="node9" class="node" pointer-events="visible" data-name="report">

<polygon fill="lightblue" stroke="black" points="879.22,-221.6 820.71,-221.6 820.71,-180.4 879.22,-180.4 879.22,-221.6" style=""/>
<text text-anchor="middle" x="849.96" y="-205.2" font-family="SimHei" font-size="14.00" style="">report</text>
<text text-anchor="middle" x="849.96" y="-188.4" font-family="SimHei" font-size="14.00" style="">(freq:2)</text>
</g>
<!-- the&#45;&gt;report -->
<g id="edge3" class="edge" data-name="the-&gt;report">

<path fill="none" stroke="gray" d="M58.83,-223.22C78.12,-233.28 104.59,-244 129.69,-244 129.69,-244 129.69,-244 400.52,-244 488.34,-244 510.21,-238 598.03,-238 598.03,-238 598.03,-238 750.43,-238 771.05,-238 792.64,-230.81 810.34,-222.77" style=""/>
<polygon fill="gray" stroke="gray" points="811.41,-226.13 818.9,-218.64 808.38,-219.83 811.41,-226.13" style=""/>
<text text-anchor="middle" x="449.4" y="-246" font-family="Times,serif" font-size="10.00" style="">1</text>
</g>
<!-- team -->
<g id="node13" class="node" pointer-events="visible" data-name="team">

<polygon fill="lightblue" stroke="black" points="159.95,-129.6 101.44,-129.6 101.44,-88.4 159.95,-88.4 159.95,-129.6" style=""/>
<text text-anchor="middle" x="130.69" y="-113.2" font-family="SimHei" font-size="14.00" style="">team</text>
<text text-anchor="middle" x="130.69" y="-96.4" font-family="SimHei" font-size="14.00" style="">(freq:2)</text>
</g>
<!-- the&#45;&gt;team -->
<g id="edge4" class="edge" data-name="the-&gt;team">

<path fill="none" stroke="gray" d="M41.79,-185.2C50.17,-171.24 62.53,-153.09 76.75,-140 81.21,-135.9 86.3,-132.09 91.52,-128.64" style=""/>
<polygon fill="gray" stroke="gray" points="92.97,-131.86 99.66,-123.64 89.31,-125.89 92.97,-131.86" style=""/>
<text text-anchor="middle" x="79.25" y="-143" font-family="Times,serif" font-size="10.00" style="">2</text>
</g>
<!-- carefully -->
<g id="node3" class="node" pointer-events="visible" data-name="carefully">

<polygon fill="lightblue" stroke="black" points="270.2,-391.6 204.71,-391.6 204.71,-350.4 270.2,-350.4 270.2,-391.6" style=""/>
<text text-anchor="middle" x="237.46" y="-375.2" font-family="SimHei" font-size="14.00" style="">carefully</text>
<text text-anchor="middle" x="237.46" y="-358.4" font-family="SimHei" font-size="14.00" style="">(freq:1)</text>
</g>
<!-- scientist&#45;&gt;carefully -->
<g id="edge5" class="edge" data-name="scientist-&gt;carefully">

<path fill="none" stroke="gray" d="M161.99,-371C171.65,-371 182.54,-371 192.94,-371" style=""/>
<polygon fill="gray" stroke="gray" points="192.88,-374.5 202.88,-371 192.88,-367.5 192.88,-374.5" style=""/>
<text text-anchor="middle" x="182.13" y="-374" font-family="Times,serif" font-size="10.00" style="">1</text>
</g>
<!-- analyzed -->
<g id="node4" class="node" pointer-events="visible" data-name="analyzed">

<polygon fill="lightblue" stroke="black" points="378.89,-391.6 313.4,-391.6 313.4,-350.4 378.89,-350.4 378.89,-391.6" style=""/>
<text text-anchor="middle" x="346.15" y="-375.2" font-family="SimHei" font-size="14.00" style="">analyzed</text>
<text text-anchor="middle" x="346.15" y="-358.4" font-family="SimHei" font-size="14.00" style="">(freq:2)</text>
</g>
<!-- scientist&#45;&gt;analyzed -->
<g id="edge6" class="edge" data-name="scientist-&gt;analyzed">

<path fill="none" stroke="gray" d="M161.91,-386.93C174.19,-392.56 188.74,-398.18 202.63,-401 232.97,-407.15 241.91,-407.01 272.28,-401 282.32,-399.01 292.72,-395.62 302.41,-391.82" style=""/>
<polygon fill="gray" stroke="gray" points="303.71,-395.07 311.59,-387.99 301.01,-388.61 303.71,-395.07" style=""/>
<text text-anchor="middle" x="237.46" y="-408" font-family="Times,serif" font-size="10.00" style="">1</text>
</g>
<!-- carefully&#45;&gt;analyzed -->
<g id="edge7" class="edge" data-name="carefully-&gt;analyzed">

<path fill="none" stroke="gray" d="M270.47,-371C280.28,-371 291.24,-371 301.68,-371" style=""/>
<polygon fill="gray" stroke="gray" points="301.65,-374.5 311.65,-371 301.65,-367.5 301.65,-374.5" style=""/>
<text text-anchor="middle" x="292.78" y="-374" font-family="Times,serif" font-size="10.00" style="">1</text>
</g>
<!-- analyzed&#45;&gt;the -->
<g id="edge8" class="edge" data-name="analyzed-&gt;the">

<path fill="none" stroke="gray" d="M312.95,-356.33C300.43,-351 285.85,-345.25 272.28,-341 187.37,-314.41 147.03,-352.57 76.75,-298 57.53,-283.08 45.64,-258.03 38.72,-237.84" style=""/>
<polygon fill="gray" stroke="gray" points="42.08,-236.85 35.74,-228.36 35.4,-238.95 42.08,-236.85" style=""/>
<text text-anchor="middle" x="182.13" y="-333" font-family="Times,serif" font-size="10.00" style="">1</text>
</g>
<!-- it -->
<g id="node18" class="node" pointer-events="visible" data-name="it">

<polygon fill="lightblue" stroke="black" points="478.65,-391.6 420.14,-391.6 420.14,-350.4 478.65,-350.4 478.65,-391.6" style=""/>
<text text-anchor="middle" x="449.4" y="-375.2" font-family="SimHei" font-size="14.00" style="">it</text>
<text text-anchor="middle" x="449.4" y="-358.4" font-family="SimHei" font-size="14.00" style="">(freq:1)</text>
</g>
<!-- analyzed&#45;&gt;it -->
<g id="edge9" class="edge" data-name="analyzed-&gt;it">

<path fill="none" stroke="gray" d="M379.18,-371C388.41,-371 398.59,-371 408.25,-371" style=""/>
<polygon fill="gray" stroke="gray" points="408.14,-374.5 418.14,-371 408.14,-367.5 408.14,-374.5" style=""/>
<text text-anchor="middle" x="399.52" y="-374" font-family="Times,serif" font-size="10.00" style="">1</text>
</g>
<!-- wrote -->
<g id="node6" class="node" pointer-events="visible" data-name="wrote">

<polygon fill="lightblue" stroke="black" points="578.4,-125.6 519.9,-125.6 519.9,-84.4 578.4,-84.4 578.4,-125.6" style=""/>
<text text-anchor="middle" x="549.15" y="-109.2" font-family="SimHei" font-size="14.00" style="">wrote</text>
<text text-anchor="middle" x="549.15" y="-92.4" font-family="SimHei" font-size="14.00" style="">(freq:1)</text>
</g>
<!-- data&#45;&gt;wrote -->
<g id="edge10" class="edge" data-name="data-&gt;wrote">

<path fill="none" stroke="gray" d="M478.93,-104.29C488.09,-104.39 498.4,-104.49 508.21,-104.59" style=""/>
<polygon fill="gray" stroke="gray" points="507.86,-108.09 517.89,-104.69 507.93,-101.09 507.86,-108.09" style=""/>
<text text-anchor="middle" x="499.27" y="-108" font-family="Times,serif" font-size="10.00" style="">1</text>
</g>
<!-- so -->
<g id="node17" class="node" pointer-events="visible" data-name="so">

<polygon fill="lightblue" stroke="black" points="578.4,-201.6 519.9,-201.6 519.9,-160.4 578.4,-160.4 578.4,-201.6" style=""/>
<text text-anchor="middle" x="549.15" y="-185.2" font-family="SimHei" font-size="14.00" style="">so</text>
<text text-anchor="middle" x="549.15" y="-168.4" font-family="SimHei" font-size="14.00" style="">(freq:1)</text>
</g>
<!-- data&#45;&gt;so -->
<g id="edge11" class="edge" data-name="data-&gt;so">

<path fill="none" stroke="gray" d="M477.11,-125.04C488.1,-133.7 500.99,-143.85 512.75,-153.11" style=""/>
<polygon fill="gray" stroke="gray" points="510.26,-155.61 520.28,-159.05 514.59,-150.11 510.26,-155.61" style=""/>
<text text-anchor="middle" x="499.27" y="-145" font-family="Times,serif" font-size="10.00" style="">1</text>
</g>
<!-- a -->
<g id="node7" class="node" pointer-events="visible" data-name="a">

<polygon fill="lightblue" stroke="black" points="678.15,-158.6 619.65,-158.6 619.65,-117.4 678.15,-117.4 678.15,-158.6" style=""/>
<text text-anchor="middle" x="648.9" y="-142.2" font-family="SimHei" font-size="14.00" style="">a</text>
<text text-anchor="middle" x="648.9" y="-125.4" font-family="SimHei" font-size="14.00" style="">(freq:1)</text>
</g>
<!-- wrote&#45;&gt;a -->
<g id="edge12" class="edge" data-name="wrote-&gt;a">

<path fill="none" stroke="gray" d="M578.69,-114.63C587.94,-117.76 598.38,-121.28 608.29,-124.63" style=""/>
<polygon fill="gray" stroke="gray" points="607.13,-127.93 617.73,-127.81 609.37,-121.3 607.13,-127.93" style=""/>
<text text-anchor="middle" x="599.03" y="-125" font-family="Times,serif" font-size="10.00" style="">1</text>
</g>
<!-- detailed -->
<g id="node8" class="node" pointer-events="visible" data-name="detailed">

<polygon fill="lightblue" stroke="black" points="779.74,-195.6 719.12,-195.6 719.12,-154.4 779.74,-154.4 779.74,-195.6" style=""/>
<text text-anchor="middle" x="749.43" y="-179.2" font-family="SimHei" font-size="14.00" style="">detailed</text>
<text text-anchor="middle" x="749.43" y="-162.4" font-family="SimHei" font-size="14.00" style="">(freq:1)</text>
</g>
<!-- a&#45;&gt;detailed -->
<g id="edge13" class="edge" data-name="a-&gt;detailed">

<path fill="none" stroke="gray" d="M678.4,-148.7C687.67,-152.18 698.13,-156.11 708.09,-159.85" style=""/>
<polygon fill="gray" stroke="gray" points="706.62,-163.04 717.21,-163.27 709.08,-156.48 706.62,-163.04" style=""/>
<text text-anchor="middle" x="698.78" y="-159" font-family="Times,serif" font-size="10.00" style="">1</text>
</g>
<!-- detailed&#45;&gt;report -->
<g id="edge14" class="edge" data-name="detailed-&gt;report">

<path fill="none" stroke="gray" d="M780,-182.8C789.3,-185.26 799.73,-188.01 809.61,-190.62" style=""/>
<polygon fill="gray" stroke="gray" points="808.41,-193.92 818.97,-193.09 810.2,-187.15 808.41,-193.92" style=""/>
<text text-anchor="middle" x="800.09" y="-191" font-family="Times,serif" font-size="10.00" style="">1</text>
</g>
<!-- and -->
<g id="node10" class="node" pointer-events="visible" data-name="and">

<polygon fill="lightblue" stroke="black" points="978.97,-249.6 920.46,-249.6 920.46,-208.4 978.97,-208.4 978.97,-249.6" style=""/>
<text text-anchor="middle" x="949.72" y="-233.2" font-family="SimHei" font-size="14.00" style="">and</text>
<text text-anchor="middle" x="949.72" y="-216.4" font-family="SimHei" font-size="14.00" style="">(freq:1)</text>
</g>
<!-- report&#45;&gt;and -->
<g id="edge16" class="edge" data-name="report-&gt;and">

<path fill="none" stroke="gray" d="M879.5,-209.17C888.75,-211.82 899.19,-214.81 909.1,-217.65" style=""/>
<polygon fill="gray" stroke="gray" points="907.94,-220.96 918.52,-220.35 909.87,-214.23 907.94,-220.96" style=""/>
<text text-anchor="middle" x="899.84" y="-218" font-family="Times,serif" font-size="10.00" style="">1</text>
</g>
<!-- with -->
<g id="node12" class="node" pointer-events="visible" data-name="with">

<polygon fill="lightblue" stroke="black" points="978.97,-102.6 920.46,-102.6 920.46,-61.4 978.97,-61.4 978.97,-102.6" style=""/>
<text text-anchor="middle" x="949.72" y="-86.2" font-family="SimHei" font-size="14.00" style="">with</text>
<text text-anchor="middle" x="949.72" y="-69.4" font-family="SimHei" font-size="14.00" style="">(freq:1)</text>
</g>
<!-- report&#45;&gt;with -->
<g id="edge15" class="edge" data-name="report-&gt;with">

<path fill="none" stroke="gray" d="M868.21,-180C883.85,-160.97 907.05,-132.72 924.53,-111.44" style=""/>
<polygon fill="gray" stroke="gray" points="927.03,-113.91 930.68,-103.96 921.62,-109.47 927.03,-113.91" style=""/>
<text text-anchor="middle" x="899.84" y="-144" font-family="Times,serif" font-size="10.00" style="">1</text>
</g>
<!-- shared -->
<g id="node11" class="node" pointer-events="visible" data-name="shared">

<polygon fill="lightblue" stroke="black" points="1078.72,-276.6 1020.22,-276.6 1020.22,-235.4 1078.72,-235.4 1078.72,-276.6" style=""/>
<text text-anchor="middle" x="1049.47" y="-260.2" font-family="SimHei" font-size="14.00" style="">shared</text>
<text text-anchor="middle" x="1049.47" y="-243.4" font-family="SimHei" font-size="14.00" style="">(freq:1)</text>
</g>
<!-- and&#45;&gt;shared -->
<g id="edge17" class="edge" data-name="and-&gt;shared">

<path fill="none" stroke="gray" d="M979.25,-236.88C988.51,-239.44 998.94,-242.32 1008.85,-245.06" style=""/>
<polygon fill="gray" stroke="gray" points="1007.7,-248.37 1018.27,-247.66 1009.56,-241.62 1007.7,-248.37" style=""/>
<text text-anchor="middle" x="999.59" y="-245" font-family="Times,serif" font-size="10.00" style="">1</text>
</g>
<!-- shared&#45;&gt;the -->
<g id="edge18" class="edge" data-name="shared-&gt;the">

<path fill="none" stroke="gray" d="M1019.99,-268.69C1000.81,-276.1 974.72,-284 950.72,-284 129.69,-284 129.69,-284 129.69,-284 97.27,-284 69.17,-257.97 51.21,-235.99" style=""/>
<polygon fill="gray" stroke="gray" points="53.98,-233.85 45.08,-228.1 48.45,-238.14 53.98,-233.85" style=""/>
<text text-anchor="middle" x="549.15" y="-287" font-family="Times,serif" font-size="10.00" style="">1</text>
</g>
<!-- with&#45;&gt;the -->
<g id="edge19" class="edge" data-name="with-&gt;the">

<path fill="none" stroke="gray" d="M936.36,-61.31C920.09,-37.02 889.06,0 850.96,0 129.69,0 129.69,0 129.69,0 53.52,0 35.74,-115.7 31.61,-173.68" style=""/>
<polygon fill="gray" stroke="gray" points="28.12,-173.41 31.01,-183.6 35.11,-173.83 28.12,-173.41" style=""/>
<text text-anchor="middle" x="499.27" y="-3" font-family="Times,serif" font-size="10.00" style="">1</text>
</g>
<!-- but -->
<g id="node14" class="node" pointer-events="visible" data-name="but">

<polygon fill="lightblue" stroke="black" points="266.71,-177.6 208.2,-177.6 208.2,-136.4 266.71,-136.4 266.71,-177.6" style=""/>
<text text-anchor="middle" x="237.46" y="-161.2" font-family="SimHei" font-size="14.00" style="">but</text>
<text text-anchor="middle" x="237.46" y="-144.4" font-family="SimHei" font-size="14.00" style="">(freq:1)</text>
</g>
<!-- team&#45;&gt;but -->
<g id="edge20" class="edge" data-name="team-&gt;but">

<path fill="none" stroke="gray" d="M160.32,-122.12C171.75,-127.35 185.1,-133.47 197.4,-139.11" style=""/>
<polygon fill="gray" stroke="gray" points="195.94,-142.29 206.49,-143.27 198.85,-135.92 195.94,-142.29" style=""/>
<text text-anchor="middle" x="182.13" y="-136" font-family="Times,serif" font-size="10.00" style="">1</text>
</g>
<!-- requested -->
<g id="node15" class="node" pointer-events="visible" data-name="requested">

<polygon fill="lightblue" stroke="black" points="272.1,-117.6 202.81,-117.6 202.81,-76.4 272.1,-76.4 272.1,-117.6" style=""/>
<text text-anchor="middle" x="237.46" y="-101.2" font-family="SimHei" font-size="14.00" style="">requested</text>
<text text-anchor="middle" x="237.46" y="-84.4" font-family="SimHei" font-size="14.00" style="">(freq:1)</text>
</g>
<!-- team&#45;&gt;requested -->
<g id="edge21" class="edge" data-name="team-&gt;requested">

<path fill="none" stroke="gray" d="M160.33,-105.32C166.68,-104.53 173.39,-103.72 179.63,-103 183.45,-102.56 187.4,-102.12 191.37,-101.68" style=""/>
<polygon fill="gray" stroke="gray" points="191.42,-105.2 200.99,-100.64 190.67,-98.24 191.42,-105.2" style=""/>
<text text-anchor="middle" x="182.13" y="-106" font-family="Times,serif" font-size="10.00" style="">1</text>
</g>
<!-- but&#45;&gt;the -->
<g id="edge22" class="edge" data-name="but-&gt;the">

<path fill="none" stroke="gray" d="M207.84,-160.19C179.94,-163.68 136.47,-170.13 99.75,-180 89.82,-182.67 79.33,-186.21 69.6,-189.81" style=""/>
<polygon fill="gray" stroke="gray" points="68.5,-186.48 60.41,-193.32 71,-193.02 68.5,-186.48" style=""/>
<text text-anchor="middle" x="130.69" y="-183" font-family="Times,serif" font-size="10.00" style="">1</text>
</g>
<!-- more -->
<g id="node16" class="node" pointer-events="visible" data-name="more">

<polygon fill="lightblue" stroke="black" points="375.4,-120.6 316.9,-120.6 316.9,-79.4 375.4,-79.4 375.4,-120.6" style=""/>
<text text-anchor="middle" x="346.15" y="-104.2" font-family="SimHei" font-size="14.00" style="">more</text>
<text text-anchor="middle" x="346.15" y="-87.4" font-family="SimHei" font-size="14.00" style="">(freq:1)</text>
</g>
<!-- requested&#45;&gt;more -->
<g id="edge23" class="edge" data-name="requested-&gt;more">

<path fill="none" stroke="gray" d="M272.51,-97.96C282.9,-98.25 294.42,-98.57 305.16,-98.88" style=""/>
<polygon fill="gray" stroke="gray" points="304.82,-102.37 314.92,-99.15 305.02,-95.37 304.82,-102.37" style=""/>
<text text-anchor="middle" x="292.78" y="-102" font-family="Times,serif" font-size="10.00" style="">1</text>
</g>
<!-- more&#45;&gt;data -->
<g id="edge24" class="edge" data-name="more-&gt;data">

<path fill="none" stroke="gray" d="M375.89,-101.14C386.02,-101.54 397.61,-101.99 408.49,-102.42" style=""/>
<polygon fill="gray" stroke="gray" points="408.29,-105.92 418.42,-102.82 408.57,-98.92 408.29,-105.92" style=""/>
<text text-anchor="middle" x="399.52" y="-106" font-family="Times,serif" font-size="10.00" style="">1</text>
</g>
<!-- so&#45;&gt;the -->
<g id="edge25" class="edge" data-name="so-&gt;the">

<path fill="none" stroke="gray" d="M519.66,-182.38C432.79,-186.57 171.05,-199.21 70.4,-204.07" style=""/>
<polygon fill="gray" stroke="gray" points="70.28,-200.57 60.46,-204.55 70.62,-207.56 70.28,-200.57" style=""/>
<text text-anchor="middle" x="292.78" y="-196" font-family="Times,serif" font-size="10.00" style="">1</text>
</g>
<!-- again -->
<g id="node19" class="node" pointer-events="visible" data-name="again">

<polygon fill="lightblue" stroke="black" points="578.4,-391.6 519.9,-391.6 519.9,-350.4 578.4,-350.4 578.4,-391.6" style=""/>
<text text-anchor="middle" x="549.15" y="-375.2" font-family="SimHei" font-size="14.00" style="">again</text>
<text text-anchor="middle" x="549.15" y="-358.4" font-family="SimHei" font-size="14.00" style="">(freq:1)</text>
</g>
<!-- it&#45;&gt;again -->
<g id="edge26" class="edge" data-name="it-&gt;again">

<path fill="none" stroke="gray" d="M478.93,-371C487.99,-371 498.18,-371 507.89,-371" style=""/>
<polygon fill="gray" stroke="gray" points="507.89,-374.5 517.89,-371 507.89,-367.5 507.89,-374.5" style=""/>
<text text-anchor="middle" x="499.27" y="-374" font-family="Times,serif" font-size="10.00" style="">1</text>
</g>
</g>
</svg>